# xmcd
#
# Track frame offsets:
# 150
# 10470
# 21833
# 36268
# 51339
# 63339
# 79809
# 92800
# 109240
# 122138
# 136970
# 151538
# 161724
# 176555
#
# Disc length: 2545 seconds
#
#
# Revision: 0
# Processed by: cddbd v1.5.1PL0 Copyright (c) Steve Scherf et al.
# Submitted via: FreeRIP 2.941 
#
DISCID=b609ef0e
DTITLE=varios - Saudades do Sertão 2 Cd2
DYEAR=1900
DGENRE=Sertanejo
TTITLE0=60 dias apaixonados - Chitãozinho and Xororo
TTITLE1=Rabo de saia - Peão Carreiro and Zé Paulo
TTITLE2=Cabecinha no ombro - Almir Sater
TTITLE3=O primeiro em sua vida - Alan and Aladim
TTITLE4=Cama enfeitada - As Mineirinhas
TTITLE5=Olhos Claros - João Paulo e Daniel
TTITLE6=O grande milagre - Mococa and Moracy
TTITLE7=Seu amor ainda é tudo - João Mineiro e Marciano
TTITLE8=Oente da minha terra - Belmonte and Amaraí
TTITLE9=Galopeira - Suzamar
TTITLE10=Chora peito - Chrystian and Ralf
TTITLE11=Amarga solidão - Silveira and Silveirinha
TTITLE12=Panela velha - Sérgio Reis
TTITLE13=Desafio de perguntas - Alvarenga e Ranchinho
EXTD=
EXTT0=
EXTT1=
EXTT2=
EXTT3=
EXTT4=
EXTT5=
EXTT6=
EXTT7=
EXTT8=
EXTT9=
EXTT10=
EXTT11=
EXTT12=
EXTT13=
PLAYORDER=
